<?xml version="1.0" standalone="no"?>
<!DOCTYPE svg PUBLIC "-//W3C//DTD SVG 20010904//EN"
 "http://www.w3.org/TR/2001/REC-SVG-20010904/DTD/svg10.dtd">
<svg version="1.0" xmlns="http://www.w3.org/2000/svg"
 width="512.000000pt" height="512.000000pt" viewBox="0 0 512.000000 512.000000"
 preserveAspectRatio="xMidYMid meet">
<metadata>
Created by potrace 1.14, written by Peter Selinger 2001-2017
</metadata>
<g transform="translate(0.000000,512.000000) scale(0.100000,-0.100000)"
fill="#000000" stroke="none">
<path d="M2375 4894 c-82 -8 -280 -36 -288 -41 -4 -3 25 -20 64 -39 100 -48
160 -94 203 -156 94 -138 109 -323 39 -480 l-25 -57 -42 33 c-58 48 -166 110
-365 211 -194 98 -313 181 -378 266 -67 86 -123 100 -179 44 -38 -38 -33 -92
15 -152 103 -130 210 -207 447 -326 172 -86 303 -162 354 -205 l34 -29 -64
-48 c-148 -110 -275 -150 -470 -149 -118 0 -145 4 -215 27 -221 73 -379 242
-455 485 l-25 82 -90 -78 c-429 -375 -710 -899 -802 -1492 -25 -160 -25 -520
0 -680 87 -561 326 -1026 729 -1416 241 -233 493 -396 798 -517 123 -49 290
-101 298 -92 3 3 -2 13 -10 22 -60 68 -68 170 -24 272 36 84 38 144 5 177 -20
19 -41 26 -99 33 -88 10 -134 27 -182 69 -45 41 -77 52 -144 52 -60 0 -111 17
-160 55 -17 13 -62 31 -100 40 -257 60 -440 261 -518 571 -22 86 -20 128 11
209 22 61 26 88 29 207 3 184 14 216 114 323 84 90 123 178 136 302 11 100
-31 179 -109 207 -17 5 -14 12 24 57 63 76 204 212 289 282 304 246 716 416
1110 457 58 6 112 13 121 16 13 3 18 24 23 94 17 221 94 405 228 544 l49 51
-25 55 c-52 118 -58 244 -16 366 42 122 118 200 259 268 42 20 68 38 60 40
-75 27 -518 54 -654 40z"/>
<path d="M4080 4307 c-22 -91 -60 -173 -113 -249 -93 -133 -204 -216 -352
-265 -71 -24 -96 -27 -220 -27 -120 -1 -151 2 -215 22 -95 30 -169 68 -250
127 l-64 48 -48 -52 c-26 -28 -61 -81 -79 -117 -36 -75 -69 -222 -69 -306 l0
-58 48 0 c82 0 292 -38 422 -75 373 -108 666 -280 935 -550 269 -270 456 -595
549 -958 43 -165 55 -238 70 -430 l12 -152 37 73 c318 619 351 1363 91 2022
-143 360 -424 748 -701 968 l-39 31 -14 -52z"/>
<path d="M1940 1438 c-72 -65 -197 -107 -318 -108 -42 0 -60 -6 -94 -30 -35
-26 -50 -30 -104 -30 -77 0 -102 -11 -134 -57 -45 -65 -29 -182 33 -250 33
-36 78 -39 161 -9 41 14 90 26 108 26 56 0 98 -59 117 -164 6 -33 18 -70 27
-84 34 -52 143 -68 223 -32 24 11 75 49 112 85 44 41 83 68 109 76 36 11 55
29 30 29 -5 0 -38 27 -73 60 -116 108 -165 249 -154 437 3 51 5 93 4 93 -1 -1
-22 -19 -47 -42z"/>
</g>
</svg>
